<?xml version="1.0" encoding="UTF-8" standalone="no"?>
<svg
   xmlns:dc="http://purl.org/dc/elements/1.1/"
   xmlns:cc="http://creativecommons.org/ns#"
   xmlns:rdf="http://www.w3.org/1999/02/22-rdf-syntax-ns#"
   xmlns:svg="http://www.w3.org/2000/svg"
   xmlns="http://www.w3.org/2000/svg"
   xmlns:sodipodi="http://sodipodi.sourceforge.net/DTD/sodipodi-0.dtd"
   xmlns:inkscape="http://www.inkscape.org/namespaces/inkscape"
   width="16"
   height="16"
   version="1.1"
   id="svg4"
   sodipodi:docname="go-next-symbolic.svg"
   inkscape:version="0.92.3 (2405546, 2018-03-11)">
  <metadata
     id="metadata10">
    <rdf:RDF>
      <cc:Work
         rdf:about="">
        <dc:format>image/svg+xml</dc:format>
        <dc:type
           rdf:resource="http://purl.org/dc/dcmitype/StillImage" />
      </cc:Work>
    </rdf:RDF>
  </metadata>
  <defs
     id="defs8" />
  <sodipodi:namedview
     pagecolor="#ffffff"
     bordercolor="#666666"
     borderopacity="1"
     objecttolerance="10"
     gridtolerance="10"
     guidetolerance="10"
     inkscape:pageopacity="0"
     inkscape:pageshadow="2"
     inkscape:window-width="640"
     inkscape:window-height="480"
     id="namedview6"
     showgrid="false"
     inkscape:zoom="14.75"
     inkscape:cx="6.8135593"
     inkscape:cy="8"
     inkscape:window-x="0"
     inkscape:window-y="0"
     inkscape:window-maximized="0"
     inkscape:current-layer="svg4" />
  <path
     fill-rule="evenodd"
     d="M7.99-.01c-.897 0-1.34 1.091-.697 1.717L12.586 7H1c-1.315.019-1.315 1.981 0 2h11.586l-5.293 5.293c-.982.942.472 2.396 1.414 1.414l7-7 .01-.01a.675.675 0 0 0 .056-.064l.01-.012a1 1 0 0 0 .051-.068l.008-.012.014-.025a1.002 1.002 0 0 0 .07-.141l.006-.014a1 1 0 0 0 .027-.08l.004-.013c.008-.028.014-.056.02-.084l.002-.014a.998.998 0 0 0 .011-.084v-.002C16 8.055 16 8.027 16 7.998v-.027a1 1 0 0 0-.006-.086l-.002-.014a.985.985 0 0 0-.078-.273l-.006-.014a1 1 0 0 0-.037-.076l-.008-.014a1 1 0 0 0-.047-.07l-.007-.012a1.004 1.004 0 0 0-.063-.078l-.012-.014a.95.95 0 0 0-.027-.027l-.021-.022L8.707.293A1 1 0 0 0 7.99-.01z"
     id="path2"
     style="fill:#4d4d4d" />
</svg>
