<?xml version="1.0" encoding="UTF-8" standalone="no"?>
<svg
   xmlns:dc="http://purl.org/dc/elements/1.1/"
   xmlns:cc="http://creativecommons.org/ns#"
   xmlns:rdf="http://www.w3.org/1999/02/22-rdf-syntax-ns#"
   xmlns:svg="http://www.w3.org/2000/svg"
   xmlns="http://www.w3.org/2000/svg"
   xmlns:sodipodi="http://sodipodi.sourceforge.net/DTD/sodipodi-0.dtd"
   xmlns:inkscape="http://www.inkscape.org/namespaces/inkscape"
   width="16"
   height="16"
   version="1.1"
   id="svg4"
   sodipodi:docname="go-previous-symbolic.svg"
   inkscape:version="0.92.3 (2405546, 2018-03-11)">
  <metadata
     id="metadata10">
    <rdf:RDF>
      <cc:Work
         rdf:about="">
        <dc:format>image/svg+xml</dc:format>
        <dc:type
           rdf:resource="http://purl.org/dc/dcmitype/StillImage" />
      </cc:Work>
    </rdf:RDF>
  </metadata>
  <defs
     id="defs8" />
  <sodipodi:namedview
     pagecolor="#ffffff"
     bordercolor="#666666"
     borderopacity="1"
     objecttolerance="10"
     gridtolerance="10"
     guidetolerance="10"
     inkscape:pageopacity="0"
     inkscape:pageshadow="2"
     inkscape:window-width="640"
     inkscape:window-height="480"
     id="namedview6"
     showgrid="false"
     inkscape:zoom="14.75"
     inkscape:cx="6.8135593"
     inkscape:cy="8"
     inkscape:window-x="0"
     inkscape:window-y="0"
     inkscape:window-maximized="0"
     inkscape:current-layer="svg4" />
  <path
     fill-rule="evenodd"
     d="M8.024-.01c.897 0 1.34 1.091.697 1.717L3.428 7h11.586c1.315.019 1.315 1.981 0 2H3.428l5.293 5.293c.982.942-.471 2.396-1.414 1.414l-7-7-.01-.01a1 1 0 0 1-.056-.064L.23 8.62a1 1 0 0 1-.05-.068L.171 8.54a1 1 0 0 1-.084-.166L.081 8.36a1 1 0 0 1-.027-.08L.05 8.267a1.002 1.002 0 0 1-.02-.084V8.17a1.002 1.002 0 0 1-.012-.084v-.002a1.002 1.002 0 0 1-.004-.086v-.027a1 1 0 0 1 .006-.086l.002-.014A1.001 1.001 0 0 1 .1 7.598l.006-.014a1 1 0 0 1 .037-.076l.008-.014a1 1 0 0 1 .047-.07l.008-.012a.143.143 0 0 1 .02-.023 1 1 0 0 1 .042-.055L.28 7.32l.027-.027.022-.022L7.307.293a1 1 0 0 1 .717-.303z"
     id="path2"
     style="fill:#333333" />
</svg>
