<?xml version="1.0" encoding="UTF-8" standalone="no"?>
<svg
   xmlns:dc="http://purl.org/dc/elements/1.1/"
   xmlns:cc="http://creativecommons.org/ns#"
   xmlns:rdf="http://www.w3.org/1999/02/22-rdf-syntax-ns#"
   xmlns:svg="http://www.w3.org/2000/svg"
   xmlns="http://www.w3.org/2000/svg"
   xmlns:sodipodi="http://sodipodi.sourceforge.net/DTD/sodipodi-0.dtd"
   xmlns:inkscape="http://www.inkscape.org/namespaces/inkscape"
   width="48"
   height="48"
   version="1.1"
   id="svg21"
   sodipodi:docname="object-flip-vertical.svg"
   inkscape:version="0.92.3 (2405546, 2018-03-11)">
  <metadata
     id="metadata25">
    <rdf:RDF>
      <cc:Work
         rdf:about="">
        <dc:format>image/svg+xml</dc:format>
        <dc:type
           rdf:resource="http://purl.org/dc/dcmitype/StillImage" />
      </cc:Work>
    </rdf:RDF>
  </metadata>
  <sodipodi:namedview
     pagecolor="#ffffff"
     bordercolor="#666666"
     borderopacity="1"
     objecttolerance="10"
     gridtolerance="10"
     guidetolerance="10"
     inkscape:pageopacity="0"
     inkscape:pageshadow="2"
     inkscape:window-width="640"
     inkscape:window-height="480"
     id="namedview23"
     showgrid="false"
     inkscape:zoom="4.9166667"
     inkscape:cx="20.440678"
     inkscape:cy="24"
     inkscape:window-x="0"
     inkscape:window-y="0"
     inkscape:window-maximized="0"
     inkscape:current-layer="svg21" />
  <defs
     id="defs17">
    <filter
       id="a">
      <feGaussianBlur
         in="SourceAlpha"
         stdDeviation=".8"
         id="feGaussianBlur2" />
      <feOffset
         dy=".4"
         id="feOffset4" />
      <feComponentTransfer
         id="feComponentTransfer8">
        <feFuncA
           slope=".3"
           type="linear"
           id="feFuncA6" />
      </feComponentTransfer>
      <feMerge
         id="feMerge14">
        <feMergeNode
           id="feMergeNode10" />
        <feMergeNode
           in="SourceGraphic"
           id="feMergeNode12" />
      </feMerge>
    </filter>
  </defs>
  <path
     fill="#ff9800"
     d="M38.024-16.035a2 2 0 0 0-.606-1.375l-12-12a2 2 0 0 0-2.828 0l-12 12a2 2 0 1 0 2.828 2.828l8.586-8.586V7.176L13.418-1.41a2 2 0 1 0-2.828 2.828l12 12a2 2 0 0 0 2.828 0l12-12a2 2 0 0 0 .606-1.435A2 2 0 0 0 34.59-1.41l-8.586 8.586v-30.344l8.586 8.586a2 2 0 0 0 3.434-1.453z"
     filter="url(#a)"
     transform="translate(0 32)"
     id="path19"
     style="fill:#ffff00" />
</svg>
