<?xml version="1.0" encoding="UTF-8" standalone="no"?>
<svg
   xmlns:dc="http://purl.org/dc/elements/1.1/"
   xmlns:cc="http://creativecommons.org/ns#"
   xmlns:rdf="http://www.w3.org/1999/02/22-rdf-syntax-ns#"
   xmlns:svg="http://www.w3.org/2000/svg"
   xmlns="http://www.w3.org/2000/svg"
   xmlns:sodipodi="http://sodipodi.sourceforge.net/DTD/sodipodi-0.dtd"
   xmlns:inkscape="http://www.inkscape.org/namespaces/inkscape"
   width="16"
   height="16"
   version="1.1"
   id="svg6"
   sodipodi:docname="system-shutdown-symbolic.svg"
   inkscape:version="0.92.3 (2405546, 2018-03-11)">
  <metadata
     id="metadata12">
    <rdf:RDF>
      <cc:Work
         rdf:about="">
        <dc:format>image/svg+xml</dc:format>
        <dc:type
           rdf:resource="http://purl.org/dc/dcmitype/StillImage" />
      </cc:Work>
    </rdf:RDF>
  </metadata>
  <defs
     id="defs10" />
  <sodipodi:namedview
     pagecolor="#ffffff"
     bordercolor="#666666"
     borderopacity="1"
     objecttolerance="10"
     gridtolerance="10"
     guidetolerance="10"
     inkscape:pageopacity="0"
     inkscape:pageshadow="2"
     inkscape:window-width="640"
     inkscape:window-height="480"
     id="namedview8"
     showgrid="false"
     inkscape:zoom="14.75"
     inkscape:cx="6.8135593"
     inkscape:cy="8"
     inkscape:window-x="0"
     inkscape:window-y="0"
     inkscape:window-maximized="0"
     inkscape:current-layer="svg6" />
  <path
     d="M3.031 2.041a1 1 0 0 0-.687.303A8.004 8.004 0 0 0 .609 11.06 8.006 8.006 0 0 0 8 16a8.006 8.006 0 0 0 7.39-4.94 8.004 8.004 0 0 0-1.734-8.716 1 1 0 1 0-1.414 1.414 5.995 5.995 0 0 1 1.301 6.539A5.993 5.993 0 0 1 8 14a5.993 5.993 0 0 1-5.543-3.703 5.995 5.995 0 0 1 1.3-6.54 1 1 0 0 0-.726-1.716z"
     id="path2"
     style="fill:#4d4d4d" />
  <path
     d="M7.984-.014A1 1 0 0 0 7 1v7a1 1 0 1 0 2 0V1A1 1 0 0 0 7.984-.014z"
     id="path4"
     style="fill:#4d4d4d" />
</svg>
